<?xml version="1.0" encoding="UTF-8" standalone="no"?>
<!DOCTYPE svg PUBLIC "-//W3C//DTD SVG 1.1//EN" "http://www.w3.org/Graphics/SVG/1.1/DTD/svg11.dtd">
<svg width="100%" height="100%" viewBox="0 0 386 386" version="1.1" xmlns="http://www.w3.org/2000/svg" xmlns:xlink="http://www.w3.org/1999/xlink" xml:space="preserve" xmlns:serif="http://www.serif.com/" style="fill-rule:evenodd;clip-rule:evenodd;stroke-miterlimit:22.9256;">
    <g transform="matrix(4.16667,0,0,4.16667,-174.522,-2766.65)">
        <path d="M47.6,699.433L46.545,699.15C46.15,700.619 45.836,702.093 45.601,703.565L50.194,704.292C50.124,704.736 50.06,705.179 50.005,705.622L49.009,705.5L50.013,705.623C49.986,705.845 49.96,706.067 49.936,706.29C49.818,707.414 49.75,708.532 49.729,709.641L49.729,709.641C49.721,710.09 49.721,710.537 49.728,710.984L46.171,711.046C46.168,710.851 46.166,710.657 46.166,710.462L46.166,710.451C46.165,710.161 46.167,709.87 46.173,709.579L46.173,709.579C46.182,709.091 46.199,708.603 46.225,708.112L45.135,708.055C45.054,709.574 45.053,711.08 45.129,712.57L49.773,712.326C49.796,712.775 49.827,713.221 49.865,713.666L44.005,714.179C43.987,713.976 43.971,713.772 43.956,713.568L43.956,713.568C43.798,711.383 43.8,709.161 43.974,706.914L43.974,706.914C43.987,706.758 44,706.602 44.013,706.446L45.241,706.554L46.329,706.649L47.557,706.756C47.522,707.157 47.492,707.557 47.468,707.955L47.467,707.978L47.465,708.018L47.465,708.022L47.463,708.044L47.462,708.064L47.462,708.066L47.461,708.088L47.46,708.11L47.459,708.132L47.457,708.155L47.456,708.177C47.431,708.653 47.414,709.127 47.405,709.6L48.497,709.619C48.518,708.474 48.588,707.321 48.71,706.162C48.734,705.931 48.761,705.702 48.789,705.473L44.167,704.905C44.192,704.703 44.218,704.5 44.247,704.298L44.246,704.298C44.545,702.128 45.01,699.954 45.647,697.793L45.647,697.793C45.692,697.643 45.737,697.493 45.783,697.343L46.962,697.704L46.961,697.704L48.006,698.023L49.184,698.383C49.067,698.768 48.955,699.153 48.849,699.538L48.837,699.581L48.832,699.598L48.831,699.602L48.825,699.623L48.819,699.645L48.813,699.666L48.808,699.687L48.808,699.688L48.802,699.709L48.796,699.732L48.791,699.752C48.667,700.212 48.551,700.673 48.445,701.134L49.509,701.379C49.767,700.264 50.076,699.151 50.436,698.041C50.508,697.821 50.581,697.602 50.657,697.384L51.822,697.786C51.75,697.997 51.678,698.209 51.608,698.422C51.26,699.497 50.96,700.576 50.71,701.657L50.71,701.657C50.608,702.094 50.515,702.532 50.429,702.97L46.937,702.291C46.974,702.101 47.013,701.91 47.053,701.719L47.055,701.708C47.115,701.424 47.178,701.14 47.244,700.856L47.244,700.857C47.354,700.382 47.472,699.907 47.6,699.433ZM88.201,672.899C98.533,672.899 107.886,677.086 114.657,683.857C121.427,690.627 125.615,699.981 125.615,710.312C125.615,720.643 121.427,729.997 114.657,736.768C107.886,743.538 98.533,747.726 88.201,747.726C77.87,747.726 68.517,743.538 61.746,736.768C54.975,729.997 50.788,720.643 50.788,710.312C50.788,699.981 54.975,690.627 61.746,683.857C68.517,677.086 77.87,672.899 88.201,672.899ZM113.951,684.563C107.361,677.973 98.257,673.897 88.201,673.897C78.146,673.897 69.042,677.973 62.452,684.563C55.862,691.153 51.786,700.257 51.786,710.312C51.786,720.368 55.862,729.472 62.452,736.061C69.042,742.651 78.146,746.727 88.201,746.727C98.257,746.727 107.361,742.651 113.951,736.061C120.541,729.472 124.616,720.368 124.616,710.312C124.616,700.257 120.541,691.153 113.951,684.563ZM88.201,663.996C100.991,663.996 112.57,669.18 120.952,677.562C129.333,685.943 134.517,697.522 134.517,710.312C134.517,723.102 129.333,734.681 120.952,743.062C112.57,751.444 100.991,756.628 88.201,756.628C75.412,756.628 63.833,751.444 55.451,743.062C47.07,734.681 41.885,723.102 41.885,710.312C41.885,697.522 47.07,685.943 55.451,677.562C63.833,669.18 75.412,663.996 88.201,663.996ZM120.246,678.268C112.045,670.067 100.715,664.995 88.201,664.995C75.687,664.995 64.358,670.067 56.157,678.268C47.956,686.469 42.884,697.798 42.884,710.312C42.884,722.826 47.956,734.156 56.157,742.357C64.358,750.557 75.687,755.63 88.201,755.63C100.715,755.63 112.045,750.557 120.246,742.357C128.446,734.156 133.519,722.826 133.519,710.312C133.519,697.798 128.446,686.469 120.246,678.268ZM69.119,672.86L68.623,671.887C67.267,672.576 65.963,673.328 64.711,674.139L67.243,678.039C66.867,678.283 66.495,678.533 66.129,678.789L66.133,678.795C65.95,678.923 65.768,679.052 65.586,679.184C64.672,679.848 63.796,680.545 62.958,681.272L62.958,681.272C62.619,681.567 62.286,681.866 61.959,682.17L59.533,679.568C59.675,679.436 59.818,679.305 59.963,679.174L59.972,679.166C60.187,678.971 60.404,678.779 60.624,678.588L60.624,678.588C60.993,678.268 61.367,677.954 61.749,677.646L61.062,676.797C59.879,677.753 58.759,678.761 57.704,679.814L60.991,683.102C60.674,683.419 60.362,683.74 60.057,684.067L55.755,680.055C55.894,679.905 56.035,679.757 56.177,679.61L56.176,679.609C57.694,678.03 59.347,676.545 61.133,675.171L61.133,675.172C61.258,675.076 61.382,674.981 61.507,674.887L62.906,676.743L63.648,677.728C63.327,677.97 63.01,678.215 62.698,678.464L62.685,678.475L62.68,678.478L62.663,678.492L62.649,678.504L62.646,678.506L62.628,678.52L62.613,678.533L62.611,678.534L62.594,678.548L62.577,678.562L62.577,678.562L62.559,678.575L62.525,678.603C62.154,678.903 61.79,679.208 61.433,679.518L62.149,680.342C63.014,679.592 63.918,678.872 64.862,678.187C65.049,678.051 65.237,677.917 65.426,677.785L62.755,673.97C62.922,673.853 63.09,673.737 63.26,673.623L63.26,673.622C65.072,672.393 66.998,671.284 69.03,670.311L69.031,670.312C69.172,670.244 69.313,670.177 69.456,670.111L69.977,671.228L69.977,671.228L70.438,672.218L70.959,673.335C70.595,673.505 70.233,673.679 69.877,673.858L69.856,673.868L69.837,673.877L69.817,673.888L69.797,673.898L69.777,673.908L69.758,673.918L69.738,673.928L69.738,673.928L69.718,673.938L69.697,673.948L69.678,673.958C69.254,674.174 68.834,674.396 68.42,674.626L68.95,675.581C69.951,675.026 70.985,674.51 72.051,674.036C72.262,673.942 72.474,673.851 72.686,673.761L70.867,669.473C71.055,669.394 71.243,669.315 71.433,669.239L71.433,669.238C73.462,668.413 75.576,667.728 77.766,667.199L77.766,667.2C77.919,667.163 78.071,667.127 78.224,667.092L78.501,668.293L78.747,669.357L79.024,670.558C78.632,670.648 78.243,670.743 77.856,670.844L77.84,670.848L77.813,670.855L77.77,670.867L77.751,670.872L77.749,670.872L77.727,670.878L77.706,670.884L77.706,670.884L77.663,670.895L77.662,670.896L77.642,670.901C77.181,671.024 76.725,671.155 76.272,671.293L76.591,672.337C77.687,672.003 78.805,671.714 79.946,671.471C80.172,671.423 80.399,671.377 80.625,671.333L79.736,666.762C79.936,666.723 80.137,666.686 80.339,666.65L80.339,666.649C82.495,666.263 84.705,666.034 86.958,665.972L86.958,665.972C87.114,665.968 87.271,665.965 87.427,665.962L87.449,667.194L87.468,668.286L87.489,669.518C87.087,669.525 86.687,669.538 86.288,669.556L86.265,669.557L86.243,669.558L86.221,669.559L86.199,669.56L86.179,669.561L86.177,669.561L86.155,669.562L86.132,669.563L86.11,669.564L86.088,669.565L86.087,669.566L86.066,669.567C85.59,669.591 85.117,669.624 84.645,669.665L84.74,670.753C85.881,670.654 87.035,670.603 88.201,670.603C88.433,670.603 88.664,670.606 88.895,670.61L88.976,665.953C89.18,665.957 89.384,665.962 89.588,665.969L89.588,665.969C91.778,666.04 93.988,666.274 96.204,666.682L96.204,666.683C96.358,666.711 96.511,666.74 96.665,666.77L96.43,667.98L96.222,669.052L95.987,670.262C95.592,670.185 95.197,670.114 94.803,670.048L94.781,670.045L94.759,670.041L94.742,670.039L94.738,670.038L94.716,670.034L94.694,670.031L94.65,670.024L94.65,670.023L94.605,670.016L94.584,670.013C94.114,669.938 93.644,669.872 93.174,669.814L93.041,670.897C94.177,671.038 95.317,671.229 96.457,671.471C96.684,671.519 96.909,671.57 97.134,671.622L98.182,667.084C98.38,667.13 98.579,667.177 98.778,667.227L98.778,667.226C100.905,667.751 103.017,668.44 105.1,669.299L105.1,669.3C105.244,669.36 105.389,669.42 105.533,669.481L105.052,670.616L105.051,670.616L104.625,671.621L104.144,672.756C103.773,672.598 103.402,672.447 103.03,672.301L103.015,672.295L103.01,672.293L102.989,672.285L102.948,672.269L102.927,672.261L102.906,672.253L102.886,672.245L102.885,672.245L102.865,672.237L102.844,672.229L102.843,672.228L102.823,672.221C102.379,672.05 101.933,671.887 101.485,671.733L101.13,672.765C102.212,673.139 103.287,673.562 104.352,674.036C104.564,674.13 104.774,674.227 104.983,674.324L106.951,670.103C107.136,670.19 107.321,670.278 107.505,670.367L107.505,670.367C109.476,671.322 111.399,672.435 113.258,673.709L113.257,673.709C113.387,673.798 113.515,673.887 113.644,673.977L112.937,674.987L112.937,674.987L112.31,675.881L111.603,676.891C111.274,676.66 110.943,676.435 110.609,676.215L110.591,676.203L110.572,676.19L110.553,676.178L110.518,676.155L110.516,676.154L110.498,676.142L110.48,676.13L110.479,676.13L110.461,676.117L110.442,676.105L110.441,676.105L110.424,676.093C110.024,675.833 109.622,675.581 109.216,675.337L108.654,676.274C109.635,676.864 110.598,677.501 111.542,678.187C111.729,678.323 111.914,678.461 112.099,678.6L111.357,679.584C111.178,679.45 110.999,679.316 110.817,679.184C109.903,678.52 108.969,677.902 108.019,677.33L108.019,677.33C107.634,677.098 107.247,676.874 106.857,676.658L108.581,673.546C108.751,673.64 108.921,673.736 109.089,673.833L109.099,673.839C109.351,673.983 109.602,674.131 109.851,674.281L109.851,674.281C110.269,674.533 110.683,674.792 111.095,675.06L111.69,674.144C110.415,673.314 109.111,672.561 107.783,671.882L105.672,676.025C105.272,675.821 104.869,675.624 104.465,675.435L104.462,675.441C104.259,675.347 104.056,675.254 103.851,675.163C102.819,674.703 101.777,674.293 100.729,673.93L100.729,673.93C100.304,673.784 99.878,673.645 99.452,673.514L100.492,670.112C100.678,670.169 100.863,670.228 101.049,670.288L101.059,670.291C101.336,670.38 101.611,670.472 101.887,670.567L101.887,670.567C102.347,670.727 102.807,670.894 103.265,671.07L103.656,670.05C102.237,669.504 100.805,669.038 99.365,668.65L98.161,673.142C97.728,673.025 97.293,672.917 96.858,672.815L96.856,672.823C96.639,672.773 96.421,672.723 96.201,672.677C95.096,672.442 93.992,672.257 92.891,672.121C92.445,672.066 92,672.019 91.555,671.979L91.865,668.435C92.059,668.453 92.252,668.471 92.446,668.491L92.457,668.492C92.746,668.522 93.035,668.554 93.324,668.59L93.324,668.59C93.808,668.65 94.292,668.719 94.777,668.796L94.948,667.717C93.446,667.478 91.948,667.32 90.459,667.24L90.215,671.884C89.767,671.86 89.319,671.843 88.873,671.835L88.873,671.842C88.65,671.839 88.426,671.836 88.201,671.836C87.072,671.836 85.953,671.885 84.848,671.981C84.4,672.019 83.955,672.066 83.512,672.12L83.078,668.589C83.271,668.565 83.465,668.543 83.658,668.522L83.669,668.521C83.958,668.49 84.247,668.462 84.538,668.437L84.538,668.437C85.024,668.395 85.511,668.361 86.001,668.336L85.945,667.245C84.425,667.324 82.927,667.48 81.454,667.712L82.182,672.305C81.738,672.375 81.297,672.451 80.859,672.536L80.86,672.543C80.641,672.586 80.421,672.63 80.202,672.677C79.097,672.912 78.013,673.192 76.952,673.515C76.522,673.646 76.096,673.784 75.674,673.929L74.516,670.565C74.699,670.503 74.884,670.441 75.069,670.38L75.08,670.377C75.356,670.286 75.633,670.199 75.912,670.114L75.912,670.114C76.378,669.972 76.848,669.837 77.322,669.711L77.04,668.656C75.57,669.048 74.138,669.513 72.745,670.046L74.411,674.387C73.992,674.548 73.576,674.714 73.165,674.888L73.168,674.895C72.962,674.983 72.757,675.071 72.552,675.163C71.52,675.622 70.518,676.122 69.547,676.658C69.154,676.876 68.766,677.099 68.383,677.329L66.551,674.28C66.718,674.18 66.885,674.081 67.054,673.983L67.064,673.977C67.315,673.832 67.568,673.689 67.823,673.547L67.823,673.548C68.249,673.312 68.681,673.082 69.119,672.86ZM58.479,740.035L57.707,740.807C58.782,741.883 59.9,742.892 61.058,743.831L63.985,740.218C64.333,740.5 64.685,740.777 65.042,741.046L61.502,745.744C61.339,745.621 61.177,745.497 61.015,745.371L61.015,745.372C59.286,744.027 57.635,742.539 56.082,740.906L56.083,740.906C55.975,740.792 55.868,740.678 55.761,740.564L56.662,739.723L57.461,738.978L58.362,738.138C58.636,738.432 58.914,738.722 59.194,739.006L59.206,739.017L59.21,739.022L59.238,739.05L59.241,739.053L59.257,739.069L59.271,739.083L59.288,739.1L59.304,739.116L59.319,739.132L59.336,739.149L59.351,739.163C59.687,739.5 60.028,739.83 60.374,740.153L61.119,739.355C60.282,738.573 59.472,737.749 58.692,736.883C58.537,736.711 58.385,736.537 58.233,736.363L59.164,735.555C59.31,735.723 59.458,735.891 59.608,736.058C60.364,736.898 61.149,737.696 61.959,738.454L61.959,738.453C62.288,738.76 62.62,739.06 62.957,739.353L60.623,742.038C60.476,741.91 60.331,741.782 60.186,741.651L60.177,741.644C59.961,741.45 59.746,741.254 59.534,741.055L59.534,741.055C59.178,740.722 58.826,740.382 58.479,740.035ZM114.654,742.978L115.342,743.827C116.524,742.871 117.644,741.864 118.7,740.811L115.412,737.522C115.73,737.205 116.041,736.884 116.346,736.558L116.341,736.552C116.493,736.389 116.645,736.224 116.795,736.058C117.551,735.218 118.263,734.354 118.932,733.469C119.202,733.11 119.466,732.748 119.722,732.383L122.636,734.424C122.524,734.583 122.412,734.741 122.297,734.899L122.291,734.908C122.121,735.143 121.948,735.377 121.772,735.61L121.772,735.609C121.479,735.998 121.177,736.384 120.868,736.765L121.717,737.452C122.675,736.271 123.561,735.053 124.375,733.803L120.474,731.27C120.719,730.894 120.957,730.515 121.188,730.132L121.182,730.128C121.297,729.937 121.411,729.744 121.523,729.55C122.088,728.572 122.605,727.579 123.075,726.574L123.074,726.574C123.265,726.167 123.447,725.758 123.622,725.347L126.897,726.737C126.821,726.916 126.743,727.095 126.664,727.273L126.66,727.283C126.542,727.548 126.422,727.813 126.299,728.077L126.298,728.077C126.092,728.518 125.877,728.958 125.654,729.395L126.627,729.891C127.319,728.536 127.932,727.161 128.468,725.769L124.127,724.102C124.288,723.683 124.442,723.263 124.588,722.841L124.581,722.839C124.653,722.627 124.725,722.415 124.794,722.202C125.144,721.127 125.443,720.048 125.694,718.968L125.693,718.968C125.795,718.53 125.888,718.092 125.974,717.654L129.466,718.333C129.429,718.524 129.39,718.714 129.35,718.905L129.348,718.916C129.288,719.2 129.225,719.484 129.159,719.768L129.159,719.768C129.049,720.243 128.93,720.717 128.803,721.192L129.858,721.474C130.253,720.005 130.567,718.532 130.802,717.059L126.209,716.332C126.28,715.888 126.343,715.445 126.398,715.002L127.237,715.105L126.39,715.001C126.418,714.78 126.444,714.557 126.467,714.334C126.585,713.21 126.653,712.093 126.674,710.984C126.682,710.535 126.682,710.087 126.675,709.641L130.232,709.579C130.235,709.773 130.237,709.967 130.237,710.162L130.237,710.174C130.238,710.464 130.235,710.754 130.23,711.046L130.23,711.046C130.221,711.533 130.204,712.022 130.178,712.512L131.269,712.569C131.349,711.05 131.35,709.544 131.274,708.055L126.63,708.298C126.607,707.85 126.577,707.403 126.538,706.958L126.531,706.959C126.511,706.736 126.49,706.513 126.467,706.29C126.349,705.166 126.183,704.059 125.973,702.97C125.887,702.529 125.795,702.091 125.695,701.656L129.161,700.856C129.204,701.045 129.246,701.235 129.287,701.426L129.29,701.437C129.351,701.721 129.409,702.005 129.464,702.292L129.464,702.292C129.557,702.77 129.641,703.252 129.718,703.737L130.796,703.566C130.56,702.063 130.247,700.59 129.863,699.149L125.371,700.353C125.256,699.919 125.133,699.488 125.003,699.061L124.997,699.063C124.931,698.85 124.864,698.636 124.795,698.423C124.446,697.348 124.054,696.3 123.621,695.278C123.446,694.864 123.264,694.455 123.076,694.051L126.301,692.547C126.382,692.723 126.463,692.9 126.543,693.078L126.547,693.088C126.666,693.353 126.782,693.62 126.896,693.888C127.086,694.337 127.269,694.791 127.444,695.249L128.464,694.858C127.92,693.437 127.308,692.061 126.632,690.732L122.489,692.842C122.286,692.442 122.076,692.046 121.86,691.656L127.005,688.804C127.104,688.983 127.202,689.162 127.298,689.342L127.298,689.342C128.332,691.274 129.233,693.305 129.988,695.428L129.988,695.428C130.04,695.575 130.092,695.723 130.143,695.872L128.977,696.273L128.977,696.273L127.945,696.628L126.779,697.029C126.649,696.649 126.513,696.272 126.372,695.898L126.349,695.836L126.341,695.815L126.325,695.774L126.318,695.753L126.318,695.753L126.31,695.732L126.301,695.711L126.301,695.71L126.294,695.691C126.123,695.246 125.946,694.805 125.761,694.37L124.756,694.796C125.202,695.851 125.607,696.933 125.967,698.042C126.039,698.262 126.108,698.482 126.175,698.703L130.628,697.341C130.688,697.536 130.746,697.732 130.803,697.928L130.803,697.928C131.412,700.033 131.872,702.207 132.169,704.44L132.169,704.44C132.189,704.595 132.209,704.751 132.228,704.906L131.005,705.057L129.921,705.19L128.697,705.34C128.648,704.941 128.594,704.544 128.534,704.149L128.532,704.132L128.531,704.127L128.528,704.105L128.525,704.087L128.524,704.083L128.521,704.061L128.511,703.996L128.511,703.995L128.507,703.973L128.504,703.951L128.504,703.95L128.5,703.929C128.427,703.459 128.344,702.991 128.254,702.527L127.182,702.735C127.4,703.859 127.571,705.002 127.693,706.161C127.717,706.391 127.739,706.622 127.759,706.851L132.398,706.445C132.416,706.649 132.432,706.852 132.447,707.057L132.447,707.057C132.605,709.241 132.603,711.463 132.429,713.71L132.428,713.71C132.416,713.866 132.403,714.022 132.39,714.178L131.162,714.07L131.162,714.071L130.074,713.976L128.846,713.868C128.881,713.468 128.911,713.068 128.934,712.669L128.936,712.653L128.936,712.647L128.937,712.625L128.938,712.606L128.94,712.58L128.941,712.56L128.941,712.558L128.942,712.536L128.943,712.514L128.946,712.469L128.947,712.447C128.972,711.972 128.989,711.497 128.998,711.024L127.906,711.005C127.885,712.15 127.815,713.303 127.693,714.463C127.669,714.693 127.642,714.922 127.614,715.151L132.236,715.719C132.211,715.922 132.185,716.124 132.157,716.327L132.157,716.327C131.858,718.497 131.393,720.67 130.756,722.831L130.756,722.831C130.711,722.981 130.666,723.131 130.62,723.281L129.441,722.921L128.398,722.601L127.219,722.241C127.336,721.857 127.449,721.472 127.555,721.087L127.559,721.07L127.561,721.065L127.566,721.043L127.578,721.001L127.589,720.958L127.595,720.937L127.595,720.937L127.601,720.915L127.607,720.894L127.607,720.892L127.613,720.872C127.737,720.412 127.852,719.952 127.959,719.491L126.894,719.245C126.636,720.36 126.327,721.474 125.967,722.583C125.895,722.803 125.821,723.022 125.746,723.24L130.15,724.756C130.083,724.949 130.015,725.141 129.945,725.334L129.946,725.334C129.202,727.394 128.296,729.423 127.223,731.405L127.223,731.405C127.148,731.542 127.073,731.68 126.997,731.817L125.919,731.219L124.964,730.69L123.886,730.093C124.081,729.741 124.271,729.388 124.454,729.033L124.462,729.018L124.465,729.013L124.475,728.993L124.483,728.977L124.485,728.974L124.504,728.936L124.505,728.934L124.525,728.895L124.526,728.895L124.536,728.875L124.546,728.854L124.556,728.836C124.773,728.411 124.981,727.985 125.181,727.556L124.192,727.095C123.707,728.132 123.174,729.157 122.591,730.167C122.475,730.367 122.357,730.566 122.238,730.764L126.23,733.162C126.125,733.337 126.018,733.511 125.91,733.685L125.911,733.685C124.755,735.546 123.446,737.342 121.985,739.057L121.985,739.057C121.883,739.176 121.781,739.295 121.678,739.413L120.748,738.604L119.924,737.888L118.994,737.079C119.257,736.776 119.516,736.47 119.77,736.161L119.781,736.148L119.784,736.144L119.798,736.127L119.81,736.113L119.812,736.11L119.826,736.093L119.84,736.075L119.854,736.058L119.868,736.041L119.896,736.006L119.897,736.006L119.91,735.989C120.21,735.619 120.503,735.246 120.788,734.868L119.916,734.21C119.226,735.124 118.491,736.016 117.711,736.883C117.556,737.055 117.399,737.224 117.242,737.393L120.649,740.569C120.509,740.718 120.369,740.867 120.227,741.014L120.227,741.015C118.709,742.594 117.056,744.079 115.271,745.453L115.27,745.453C115.146,745.548 115.021,745.643 114.896,745.737L114.155,744.753L114.154,744.753L113.497,743.881L112.755,742.897C113.077,742.655 113.394,742.409 113.706,742.16L113.719,742.15L113.74,742.132L113.775,742.104L113.791,742.092L113.792,742.09L113.827,742.063L113.827,742.063L113.844,742.049L113.879,742.021C114.249,741.721 114.613,741.416 114.97,741.106L114.254,740.282C113.389,741.032 112.485,741.752 111.542,742.437C111.355,742.574 111.166,742.707 110.977,742.839L113.649,746.655C113.481,746.771 113.313,746.887 113.144,747.002L113.144,747.002C111.331,748.232 109.405,749.341 107.373,750.313L107.373,750.313C107.231,750.38 107.09,750.447 106.948,750.513L106.427,749.396L105.965,748.407L105.444,747.29C105.809,747.12 106.17,746.946 106.527,746.767L106.542,746.759L106.547,746.757L106.586,746.737L106.606,746.727L106.624,746.718L106.626,746.717L106.646,746.707L106.665,746.697L106.666,746.697L106.685,746.687L106.707,746.676L106.725,746.666C107.15,746.451 107.569,746.228 107.983,745.999L107.454,745.044C106.452,745.598 105.418,746.114 104.353,746.588C104.141,746.682 103.929,746.774 103.717,746.864L105.536,751.151C105.349,751.23 105.16,751.309 104.97,751.386L104.97,751.386C102.942,752.212 100.828,752.896 98.637,753.425L98.637,753.424C98.485,753.461 98.332,753.497 98.18,753.532L97.902,752.331L97.657,751.268L97.379,750.067C97.771,749.976 98.161,749.881 98.547,749.78L98.563,749.776L98.569,749.774L98.59,749.769L98.612,749.763L98.633,749.758L98.652,749.752L98.655,749.752L98.676,749.746L98.697,749.741L98.697,749.741L98.719,749.735L98.742,749.729L98.762,749.723C99.222,749.6 99.678,749.47 100.131,749.332L99.812,748.288C98.717,748.621 97.598,748.911 96.458,749.153C96.231,749.201 96.005,749.247 95.778,749.291L95.543,748.081C95.762,748.038 95.982,747.994 96.201,747.948C97.307,747.713 98.39,747.432 99.452,747.109C99.881,746.978 100.307,746.84 100.729,746.695L101.887,750.059C101.704,750.122 101.519,750.184 101.334,750.244L101.323,750.248C101.048,750.338 100.77,750.426 100.492,750.511L100.492,750.51C100.025,750.652 99.555,750.787 99.081,750.914L99.363,751.969C100.833,751.576 102.266,751.111 103.658,750.579L101.992,746.237C102.411,746.077 102.827,745.91 103.238,745.736L103.235,745.729C103.441,745.642 103.646,745.553 103.851,745.462C104.884,745.002 105.885,744.503 106.856,743.966C107.249,743.748 107.637,743.525 108.02,743.295L109.852,746.345C109.685,746.444 109.518,746.543 109.349,746.641L109.34,746.647C109.089,746.793 108.836,746.936 108.581,747.077L108.581,747.077C108.154,747.313 107.722,747.542 107.285,747.765L107.78,748.738C109.136,748.048 110.441,747.296 111.693,746.485L109.16,742.585C109.537,742.341 109.909,742.091 110.275,741.836L110.27,741.829C110.453,741.701 110.636,741.572 110.817,741.44C111.732,740.776 112.607,740.079 113.445,739.352C113.785,739.058 114.117,738.758 114.445,738.454L116.871,741.056C116.728,741.188 116.585,741.32 116.44,741.45L116.432,741.458C116.217,741.653 115.999,741.845 115.779,742.037L115.779,742.036C115.411,742.356 115.036,742.67 114.654,742.978ZM123.455,687.419L124.371,686.824C123.544,685.548 122.658,684.329 121.721,683.169L118.108,686.095C117.825,685.746 117.538,685.403 117.246,685.065L121.685,681.206C121.819,681.36 121.952,681.515 122.083,681.672L122.084,681.672C123.496,683.346 124.8,685.145 125.98,687.065L125.98,687.065C126.062,687.199 126.143,687.332 126.224,687.467L125.167,688.102L124.231,688.664L123.175,689.299C122.968,688.954 122.757,688.613 122.541,688.277L122.517,688.239L122.507,688.224L122.505,688.221L122.493,688.202L122.483,688.185L122.481,688.184L122.469,688.165L122.458,688.147L122.457,688.146L122.445,688.128L122.433,688.109L122.432,688.108L122.421,688.09C122.162,687.691 121.897,687.297 121.626,686.909L120.731,687.535C121.387,688.474 122.008,689.448 122.591,690.458C122.707,690.659 122.82,690.86 122.932,691.061L121.854,691.659C121.745,691.464 121.636,691.269 121.524,691.074C120.959,690.096 120.357,689.152 119.722,688.242C119.464,687.874 119.201,687.512 118.933,687.155L121.774,685.014C121.891,685.169 122.007,685.326 122.122,685.483L122.128,685.492C122.299,685.727 122.468,685.963 122.635,686.202L122.635,686.202C122.914,686.602 123.188,687.007 123.455,687.419ZM117.924,680.59L118.697,679.818C117.622,678.741 116.503,677.733 115.345,676.793L112.419,680.407C112.07,680.124 111.718,679.848 111.362,679.579L114.902,674.88C115.065,675.003 115.227,675.128 115.388,675.253L115.389,675.253C117.118,676.597 118.768,678.086 120.321,679.718L120.321,679.719C120.429,679.832 120.536,679.946 120.643,680.061L119.741,680.901L119.741,680.902L118.943,681.646L118.041,682.487C117.767,682.193 117.49,681.903 117.209,681.619L117.198,681.607L117.194,681.603L117.178,681.587L117.162,681.572L117.147,681.556L117.131,681.54L117.116,681.524L117.1,681.509L117.1,681.509L117.085,681.493L117.068,681.476L117.053,681.462C116.716,681.124 116.375,680.794 116.029,680.471L115.285,681.27C116.121,682.051 116.931,682.875 117.711,683.742C117.866,683.914 118.019,684.087 118.17,684.261L117.24,685.07C117.093,684.901 116.946,684.733 116.795,684.567C116.039,683.727 115.254,682.929 114.444,682.171L114.444,682.171C114.116,681.865 113.783,681.565 113.447,681.272L115.781,678.587C115.927,678.714 116.073,678.843 116.218,678.973L116.226,678.981C116.442,679.175 116.657,679.371 116.87,679.57L116.87,679.57C117.226,679.903 117.578,680.243 117.924,680.59ZM90.401,752.288L90.459,753.379C91.977,753.301 93.476,753.144 94.949,752.913L94.221,748.32C94.665,748.25 95.106,748.173 95.545,748.088L96.667,753.863C96.466,753.901 96.266,753.939 96.064,753.975L96.064,753.975C93.908,754.361 91.698,754.591 89.446,754.653L89.446,754.652C89.289,754.656 89.133,754.66 88.976,754.663L88.954,753.43L88.954,753.43L88.935,752.338L88.914,751.106C89.315,751.099 89.716,751.087 90.115,751.069L90.138,751.068L90.16,751.067L90.182,751.065L90.204,751.064L90.224,751.063L90.226,751.063L90.27,751.061L90.27,751.061L90.293,751.06L90.315,751.059L90.316,751.059L90.337,751.058C90.813,751.033 91.286,751 91.758,750.959L91.662,749.872C90.522,749.97 89.368,750.021 88.202,750.021C87.97,750.021 87.739,750.018 87.509,750.014L87.53,748.782C87.754,748.786 87.977,748.788 88.202,748.788C89.332,748.788 90.45,748.739 91.555,748.644C92.003,748.605 92.448,748.559 92.891,748.505L93.325,752.036C93.132,752.059 92.938,752.081 92.745,752.102L92.733,752.103C92.445,752.134 92.155,752.162 91.865,752.188L91.865,752.187C91.38,752.229 90.892,752.263 90.401,752.288ZM81.626,751.829L81.455,752.907C82.957,753.146 84.455,753.305 85.944,753.384L86.188,748.74C86.636,748.764 87.083,748.781 87.53,748.79L87.427,754.671C87.223,754.667 87.019,754.662 86.814,754.655L86.814,754.656C84.625,754.585 82.415,754.35 80.199,753.942L80.2,753.942C80.046,753.913 79.892,753.884 79.738,753.854L79.973,752.644L80.181,751.573L80.416,750.362C80.811,750.439 81.206,750.511 81.6,750.576L81.622,750.579L81.662,750.586L81.666,750.586L81.687,750.59L81.707,750.593L81.709,750.594L81.731,750.597L81.753,750.601L81.753,750.601L81.797,750.608L81.798,750.608L81.819,750.611C82.289,750.686 82.76,750.753 83.229,750.811L83.362,749.727C82.226,749.586 81.087,749.396 79.946,749.153C79.719,749.105 79.494,749.055 79.269,749.003L79.546,747.802C79.764,747.852 79.982,747.901 80.202,747.948C81.307,748.183 82.411,748.367 83.512,748.503C83.958,748.559 84.403,748.606 84.848,748.645L84.538,752.189C84.344,752.172 84.15,752.153 83.957,752.133L83.946,752.132C83.657,752.103 83.368,752.07 83.079,752.034L83.079,752.034C82.595,751.974 82.111,751.906 81.626,751.829ZM73.138,749.554L72.747,750.574C74.166,751.12 75.598,751.586 77.038,751.974L78.242,747.482C78.676,747.599 79.11,747.708 79.545,747.809L78.222,753.541C78.022,753.494 77.824,753.447 77.625,753.398L77.625,753.398C75.499,752.874 73.386,752.185 71.303,751.325L71.303,751.325C71.158,751.265 71.014,751.204 70.87,751.143L71.351,750.008L71.778,749.003L72.26,747.869C72.63,748.026 73.001,748.178 73.373,748.323L73.388,748.329L73.394,748.331L73.414,748.34L73.435,748.347L73.455,748.356L73.474,748.363L73.476,748.363L73.497,748.372L73.517,748.379L73.517,748.38L73.538,748.388L73.559,748.396L73.56,748.396L73.58,748.403C74.024,748.575 74.47,748.737 74.917,748.892L75.273,747.859C74.191,747.486 73.116,747.062 72.051,746.588C71.839,746.494 71.629,746.398 71.42,746.3L69.452,750.521C69.267,750.434 69.083,750.347 68.899,750.258L68.898,750.258C66.927,749.303 65.004,748.189 63.145,746.916L63.145,746.915C63.016,746.826 62.888,746.737 62.759,746.647L63.466,745.638L64.093,744.743L64.799,743.734C65.129,743.964 65.46,744.19 65.794,744.409L65.807,744.419L65.813,744.422L65.846,744.444L65.849,744.446L65.868,744.459L65.885,744.469L65.887,744.471L65.905,744.483L65.923,744.494L65.924,744.495L65.942,744.507L65.961,744.519L65.962,744.52L65.98,744.531C66.379,744.791 66.781,745.043 67.187,745.287L67.749,744.351C66.768,743.76 65.805,743.123 64.861,742.437C64.674,742.301 64.489,742.164 64.305,742.025L65.046,741.04C65.225,741.175 65.404,741.308 65.586,741.44C66.5,742.104 67.434,742.722 68.384,743.295L68.384,743.294C68.769,743.526 69.156,743.75 69.546,743.967L67.822,747.079C67.652,746.984 67.482,746.888 67.314,746.791L67.304,746.786C67.052,746.641 66.802,746.494 66.552,746.343L66.552,746.343C66.135,746.092 65.72,745.832 65.308,745.565L64.714,746.481C65.988,747.31 67.293,748.064 68.62,748.742L70.732,744.599C71.131,744.803 71.533,745 71.938,745.19L71.481,746.169L71.941,745.183C72.144,745.277 72.347,745.371 72.552,745.462C73.584,745.922 74.626,746.332 75.674,746.694C76.099,746.84 76.525,746.979 76.951,747.11L75.911,750.512C75.726,750.455 75.54,750.397 75.355,750.337L75.344,750.334C75.067,750.245 74.792,750.152 74.516,750.057C74.056,749.898 73.596,749.73 73.138,749.554ZM52.949,733.205L52.033,733.8C52.861,735.077 53.745,736.296 54.682,737.455L58.296,734.529C58.579,734.878 58.865,735.222 59.158,735.559L54.718,739.418C54.585,739.264 54.452,739.109 54.32,738.953L54.32,738.953C52.908,737.278 51.603,735.479 50.424,733.56L50.424,733.559C50.342,733.426 50.261,733.292 50.18,733.158L51.237,732.523L52.173,731.961L53.229,731.326C53.436,731.67 53.647,732.011 53.863,732.347L53.874,732.367L53.886,732.385L53.896,732.4L53.899,732.404L53.91,732.422L53.922,732.439L53.922,732.441L53.946,732.478L53.946,732.478L53.958,732.497L53.971,732.516L53.971,732.517L53.983,732.534C54.242,732.934 54.507,733.328 54.778,733.715L55.673,733.089C55.017,732.151 54.396,731.177 53.813,730.167C53.697,729.966 53.584,729.765 53.472,729.563L54.55,728.965C54.659,729.161 54.768,729.356 54.88,729.55C55.445,730.529 56.047,731.473 56.682,732.382C56.94,732.751 57.202,733.113 57.471,733.47L54.63,735.611C54.513,735.455 54.397,735.299 54.282,735.141L54.275,735.132C54.104,734.898 53.935,734.661 53.768,734.422C53.49,734.023 53.216,733.617 52.949,733.205ZM48.959,725.376L47.94,725.767C48.484,727.188 49.096,728.564 49.771,729.893L53.915,727.782C54.118,728.183 54.327,728.578 54.543,728.969L49.399,731.821C49.3,731.642 49.202,731.463 49.106,731.283L49.105,731.283C48.072,729.351 47.171,727.32 46.416,725.197L46.416,725.197C46.364,725.049 46.312,724.902 46.261,724.753L47.427,724.352L47.427,724.352L48.459,723.996L49.624,723.595C49.755,723.975 49.891,724.353 50.032,724.727L50.039,724.747L50.055,724.789L50.063,724.81L50.07,724.829L50.071,724.831L50.079,724.851L50.086,724.871L50.086,724.872L50.094,724.893L50.103,724.915L50.11,724.934C50.28,725.379 50.458,725.819 50.643,726.255L51.648,725.828C51.201,724.774 50.797,723.692 50.436,722.583C50.365,722.363 50.296,722.142 50.229,721.922L51.407,721.561C51.473,721.775 51.539,721.989 51.609,722.202C51.958,723.277 52.35,724.325 52.782,725.347L52.782,725.347C52.957,725.76 53.139,726.17 53.327,726.574L50.103,728.078C50.021,727.902 49.941,727.724 49.861,727.547L49.856,727.536C49.738,727.272 49.622,727.005 49.508,726.737L49.508,726.737C49.318,726.288 49.135,725.834 48.959,725.376ZM46.685,716.888L45.607,717.059C45.843,718.561 46.156,720.035 46.54,721.475L51.032,720.272C51.148,720.706 51.27,721.136 51.4,721.564L45.774,723.283C45.715,723.088 45.657,722.892 45.6,722.696L45.6,722.696C44.991,720.592 44.531,718.417 44.234,716.184L44.235,716.184C44.214,716.029 44.194,715.874 44.175,715.718L45.399,715.568L46.482,715.435L47.706,715.284C47.755,715.683 47.809,716.081 47.869,716.476L47.871,716.492L47.885,716.583L47.889,716.607L47.892,716.629L47.892,716.629L47.899,716.673L47.902,716.695C47.977,717.166 48.059,717.633 48.149,718.098L49.221,717.889C49.003,716.765 48.832,715.623 48.71,714.463C48.686,714.233 48.664,714.003 48.645,713.773L49.873,713.666C49.892,713.888 49.913,714.111 49.936,714.334C50.054,715.458 50.22,716.565 50.43,717.654L50.43,717.654C50.516,718.095 50.609,718.533 50.708,718.968L47.242,719.769C47.199,719.579 47.156,719.389 47.116,719.199L47.113,719.188C47.052,718.904 46.994,718.619 46.939,718.333L46.939,718.333C46.847,717.854 46.762,717.373 46.685,716.888ZM50.749,691.229L49.776,690.733C49.084,692.088 48.471,693.464 47.935,694.855L52.276,696.522C52.115,696.941 51.961,697.361 51.815,697.783L46.253,695.868C46.32,695.675 46.388,695.483 46.457,695.29L46.457,695.29C47.201,693.23 48.107,691.201 49.18,689.219L49.18,689.219C49.255,689.082 49.33,688.944 49.406,688.807L50.484,689.405L50.484,689.405L51.439,689.934L52.517,690.532C52.322,690.883 52.132,691.237 51.949,691.591L51.941,691.606L51.938,691.611L51.908,691.67L51.899,691.688L51.898,691.69L51.888,691.71L51.857,691.769L51.847,691.789C51.631,692.213 51.422,692.639 51.222,693.068L52.211,693.53C52.696,692.493 53.23,691.468 53.813,690.458C53.928,690.257 54.046,690.059 54.165,689.861L55.221,690.496C55.107,690.688 54.992,690.88 54.88,691.074C54.315,692.053 53.799,693.046 53.329,694.051L53.329,694.051C53.138,694.458 52.956,694.866 52.781,695.277L49.507,693.887C49.583,693.708 49.66,693.53 49.739,693.352L49.744,693.341C49.861,693.076 49.981,692.811 50.105,692.547L50.105,692.547C50.311,692.106 50.526,691.667 50.749,691.229ZM55.535,683.859L54.686,683.172C53.728,684.353 52.842,685.572 52.029,686.821L55.928,689.354C55.684,689.73 55.445,690.11 55.215,690.492L50.173,687.462C50.278,687.287 50.385,687.113 50.493,686.94L50.492,686.939C51.649,685.079 52.957,683.282 54.418,681.567L54.418,681.567C54.52,681.448 54.622,681.33 54.725,681.211L55.655,682.02L56.479,682.736L57.41,683.545C57.146,683.848 56.887,684.154 56.633,684.463L56.619,684.48L56.605,684.497L56.593,684.512L56.591,684.514L56.577,684.532L56.535,684.583L56.535,684.583L56.521,684.601L56.506,684.619L56.493,684.635C56.193,685.005 55.9,685.379 55.615,685.757L56.487,686.414C57.177,685.5 57.912,684.608 58.692,683.742C58.847,683.57 59.003,683.4 59.161,683.231L60.062,684.072C59.91,684.236 59.758,684.4 59.608,684.567C58.852,685.407 58.14,686.27 57.471,687.156L57.472,687.156C57.201,687.514 56.938,687.876 56.681,688.242L53.767,686.201C53.879,686.042 53.992,685.883 54.106,685.725L54.112,685.716C54.282,685.481 54.455,685.247 54.631,685.015C54.925,684.626 55.226,684.241 55.535,683.859" style="fill:rgb(224,146,46);"/>
    </g>
    <g transform="matrix(-4.16667,0,0,4.16667,560.238,-2766.65)">
        <circle cx="88.171" cy="710.312" r="34.689" style="fill:rgb(7,45,63);stroke:rgb(26,26,24);stroke-width:0.22px;"/>
    </g>
    <g transform="matrix(4.16667,0,0,4.16667,-174.522,-2765.28)">
        <path d="M54.705,704.171C60.523,704.229 65.855,700.433 71.431,698.563C77.087,696.166 82.63,691.58 89.296,691.709C91,692.103 91.917,697.926 92.104,700.585C96.179,701.568 97.58,704.746 96.449,708.787C99.257,710.161 101.192,712.134 102.254,714.705C99.926,712.872 97.354,712.033 94.427,712.645C97.23,715.696 98.267,718.689 97.048,722.195C95.81,724.922 93.45,728.715 87.273,726.689C92.233,726.73 94.818,724.86 95.438,721.409C95.975,718.75 95.902,716.389 92.694,713.692C92.169,714.878 91.28,715.516 90.532,716.353C91.892,722.77 88.796,724.992 85.064,726.614C83.428,727.249 78.874,728.259 80.494,723.019C80.658,725.34 81.907,726.482 85.363,725.042C86.998,724.13 89.308,722.058 88.809,718.038C85.401,720.08 82.272,721.776 78.715,722.719C84.681,719.562 89.775,716.09 92.142,711.634C89.808,711.615 87.885,712.42 85.7,712.308L88.921,710.697C92.69,711.569 96.664,709.802 95.344,705.323C93.927,700.499 89.87,701.143 87.161,704.63C87.206,703.244 87.97,701.934 90.157,700.773C90.261,697.013 89.728,694.45 88.616,693.535C86.657,692.677 77.678,697.267 73.098,699.592C67.13,702.023 59.331,707.595 54.705,704.171" style="fill:white;"/>
    </g>
    <g transform="matrix(4.16667,0,0,4.16667,-174.522,-2787.96)">
        <path d="M77.447,714.094C80.575,713.913 83.482,712.49 86.735,709.951C86.925,712.585 87.366,714.427 88.578,715.703C88.16,715.367 87.743,715.03 87.325,714.693C86.778,715.747 84.986,715.787 82.423,715.198L87.201,714.337C86.496,713.557 86.294,712.689 86.436,711.76C82.784,714.259 80.537,714.869 77.447,714.094" style="fill:white;"/>
    </g>
    <g transform="matrix(4.16667,0,0,4.16667,-174.522,-2805.5)">
        <path d="M75.707,717.443C79.12,715.476 83.079,713.999 87.015,712.504C85.335,713.894 83.392,715.266 81.581,715.947C79.744,716.679 77.674,717.225 75.707,717.443" style="fill:white;"/>
    </g>
    <g transform="matrix(4.16667,0,0,4.16667,-174.522,-2818.45)">
        <path d="M66.038,720.424C72.823,719.297 79.539,716.232 86.225,712.26C82.663,715.074 79.019,717.608 75.108,719.224C72.375,720.349 69.37,720.796 66.038,720.424" style="fill:white;"/>
    </g>
    <g transform="matrix(4.16667,0,0,4.16667,-174.522,-2823.8)">
        <path d="M59.634,720.36C66.793,719.183 74.584,716.443 82.592,713.169C78.608,715.429 74.228,718.154 67.55,719.965C63.908,721.1 61.33,721.17 59.634,720.36" style="fill:white;"/>
    </g>
    <g transform="matrix(4.16667,0,0,4.16667,-174.522,-2868.76)">
        <path d="M79.692,721.85C80.883,721.37 86.231,718.921 88.054,720.822C89.024,721.764 88.655,723.529 88.747,725.218L87.587,726.21C87.54,724.867 87.463,723.557 87.241,722.403C87.138,720.067 82.807,721.642 79.692,721.85" style="fill:white;"/>
    </g>
    <g transform="matrix(4.16667,0,0,4.16667,-174.522,-2719.66)">
        <path d="M74.614,712.032C78.481,708.398 78.806,703.492 75.588,697.314C77.542,699.596 78.681,701.924 78.837,704.307C79.588,707.546 77.755,709.99 74.614,712.032" style="fill:white;"/>
    </g>
    <g transform="matrix(2.44058,3.37708,3.37708,-2.44058,-2396.96,1706.46)">
        <path d="M72.835,688.661C72.129,690.572 71.705,692.552 71.732,695.009C71.79,696.888 73.443,699.285 72.835,701.98C74.337,698.825 73.832,697.165 73.009,694.987C72.565,692.749 72.837,690.542 72.835,688.661" style="fill:white;"/>
    </g>
    <g transform="matrix(4.16667,0,0,4.16667,-174.522,-2605.77)">
        <path d="M72.723,690.242C76.693,691.299 81.244,690.918 86.262,689.381C83.461,691.368 80.824,692.373 78.322,692.564C76.549,692.632 74.29,691.559 72.723,690.242" style="fill:white;"/>
    </g>
    <g transform="matrix(4.16667,0,0,4.16667,-174.522,-2623.41)">
        <path d="M81.468,697.436C87.971,699.71 93.904,695.548 99.408,686.537C97.607,691.358 95.304,695.137 92.104,697.061C88.753,699.266 85.219,699.525 81.468,697.436" style="fill:white;"/>
    </g>
    <g transform="matrix(4.16667,0,0,4.16667,-174.522,-2734.38)">
        <path d="M97.61,723.018C98.575,716.908 99.764,711.718 102.029,710.958C103.447,710.647 106.923,711.982 109.37,712.494C110.138,712.568 110.849,712.718 111.28,711.707C111.554,710.266 111.417,709.816 110.98,709.123L109.924,707.371C109.474,706.94 109.347,706.455 109.793,705.875L109.588,705.519C108.952,705.797 108.383,705.866 107.885,705.706C108.848,704.862 109.735,704.014 110.411,703.157L110.392,702.507C110.068,702.1 109.718,701.816 109.345,701.646C108.896,701.366 109.043,701.17 109.391,700.782C110.587,700.041 111.774,699.468 111.103,698.56C107.68,695.29 106.386,692.481 105.958,689.86C107.9,692.939 110.101,695.672 112.491,698.153C113.059,698.806 113.114,699.347 112.656,699.832L110.747,701.272C111.016,701.877 111.358,702.445 111.776,702.975C111.972,703.353 111.919,703.51 111.673,703.742C111.334,704.178 110.987,704.498 110.635,704.771C111.639,705.008 111.935,705.448 111.197,706.183C110.73,706.726 110.926,707.306 111.421,707.895C111.876,708.506 112.593,708.921 112.787,709.729C112.917,710.284 112.412,711.911 111.889,712.872C111.485,713.744 110.776,714.074 109.7,713.751C107.137,713.427 102.74,711.587 102.011,712.778C100.375,714.376 98.796,718.52 97.61,723.018" style="fill:white;"/>
    </g>
    <g transform="matrix(4.16667,0,0,4.16667,-174.522,-2823.97)">
        <path d="M99.279,716.545L101.019,714.655L107.075,714.836L106.351,717.181L107.773,719.725L106.557,718.36L102.422,718.565L104.106,717.237C105.55,717.563 106.22,715.564 104.499,715.712C102.513,715.861 100.692,716.097 99.279,716.545" style="fill:white;"/>
    </g>
    <g transform="matrix(2.34567,3.44368,3.44368,-2.34567,-2472.8,1479.49)">
        <path d="M103.891,713.984C101.919,718.996 101.297,723.34 104.419,727.953L103.891,730.667L105.988,727.632C103.56,723.258 103.213,718.694 103.891,713.984" style="fill:white;"/>
    </g>
    <g transform="matrix(4.16667,0,0,4.16667,-174.522,-2932.82)">
        <path d="M76.974,735.215C75.881,734.822 81.786,730.215 83.865,729.747C85.944,729.279 93.453,725.29 98.247,726.901C101.735,728.518 104.522,730.694 107.872,732.444C108.563,732.744 110.394,731.719 111.654,731.357C109.986,733.312 108.43,734.127 107.01,733.567C99.604,729.144 96.463,727.359 93.153,728.099C88.8,729.304 84.76,730.79 80.906,732.444L80.084,733.988L76.974,735.215Z" style="fill:white;"/>
    </g>
</svg>
